<?xml version="1.0" encoding="UTF-8" standalone="no" ?>
<!DOCTYPE svg PUBLIC "-//W3C//DTD SVG 1.1//EN" "http://www.w3.org/Graphics/SVG/1.1/DTD/svg11.dtd">
<svg xmlns="http://www.w3.org/2000/svg" xmlns:xlink="http://www.w3.org/1999/xlink" version="1.1" width="1080" height="1080" viewBox="0 0 1080 1080" xml:space="preserve">
<desc>Created with Fabric.js 5.2.4</desc>
<defs>
</defs>
<g transform="matrix(1 0 0 1 540 540)" id="3e9f76a3-22a1-46a4-af68-0ffbe398590b"  >
<rect style="stroke: none; stroke-width: 1; stroke-dasharray: none; stroke-linecap: butt; stroke-dashoffset: 0; stroke-linejoin: miter; stroke-miterlimit: 4; fill: rgb(255,255,255); fill-rule: nonzero; opacity: 1; visibility: hidden;" vector-effect="non-scaling-stroke"  x="-540" y="-540" rx="0" ry="0" width="1080" height="1080" />
</g>
<g transform="matrix(1 0 0 1 540 540)" id="b1cda307-39e9-41f0-9906-fbaf432f30cb"  >
</g>
<g transform="matrix(0.99 0 0 0.99 540 540)"  >
<path style="stroke: none; stroke-width: 1; stroke-dasharray: none; stroke-linecap: butt; stroke-dashoffset: 0; stroke-linejoin: miter; stroke-miterlimit: 4; fill: rgb(8,102,255); fill-rule: nonzero; opacity: 1;"  transform=" translate(-545.28, -181.37)" d="M 881.583 257.897 L 911.063 257.897 L 911.063 210.201 L 952.2 257.897 L 988.272 257.897 L 940.3820000000001 202.928 L 981.291 155.265 L 948.466 155.265 L 911.063 199.195 L 911.063 102.213 L 881.583 106.077 L 881.583 257.897 Z M 813.595 152.636 C 780.8670000000001 152.636 758.14 174.649 758.14 206.565 C 758.14 238.481 780.867 260.494 813.595 260.494 C 846.322 260.494 869.0500000000001 238.48100000000002 869.0500000000001 206.56500000000003 C 869.0500000000001 174.64900000000003 846.3220000000001 152.63600000000002 813.595 152.63600000000002 Z M 813.595 235.36399999999998 C 798.432 235.36399999999998 788.043 223.64299999999997 788.043 206.56499999999997 C 788.043 189.48699999999997 798.432 177.76599999999996 813.595 177.76599999999996 C 828.7570000000001 177.76599999999996 839.147 189.48699999999997 839.147 206.56499999999997 C 839.147 223.64299999999997 828.7570000000001 235.36399999999998 813.595 235.36399999999998 Z M 693.788 152.63599999999997 C 661.061 152.63599999999997 638.333 174.64899999999997 638.333 206.56499999999997 C 638.333 238.48099999999997 661.0609999999999 260.49399999999997 693.788 260.49399999999997 C 726.516 260.49399999999997 749.243 238.48099999999997 749.243 206.56499999999997 C 749.243 174.64899999999997 726.5160000000001 152.63599999999997 693.788 152.63599999999997 Z M 693.788 235.36399999999998 C 678.626 235.36399999999998 668.236 223.64299999999997 668.236 206.56499999999997 C 668.236 189.48699999999997 678.626 177.76599999999996 693.788 177.76599999999996 C 708.951 177.76599999999996 719.34 189.48699999999997 719.34 206.56499999999997 C 719.34 223.64299999999997 708.951 235.36399999999998 693.788 235.36399999999998 Z M 580.962 152.63599999999997 C 567.326 152.63599999999997 556.027 157.99299999999997 548.949 167.79799999999997 L 548.949 102.21299999999998 L 519.4359999999999 106.04399999999998 L 519.4359999999999 257.864 L 545.6049999999999 257.864 L 546.1239999999999 242.01999999999998 C 553.1049999999999 253.838 565.6049999999999 260.49399999999997 580.9619999999999 260.49399999999997 C 608.9499999999998 260.49399999999997 629.4369999999999 237.76599999999996 629.4369999999999 206.56499999999997 C 629.4369999999999 175.36299999999997 609.0469999999999 152.63599999999997 580.9619999999999 152.63599999999997 Z M 573.982 235.36399999999998 C 558.819 235.36399999999998 548.43 223.64299999999997 548.43 206.56499999999997 C 548.43 189.48699999999997 558.819 177.76599999999996 573.982 177.76599999999996 C 589.144 177.76599999999996 599.534 189.48699999999997 599.534 206.56499999999997 C 599.534 223.64299999999997 589.144 235.36399999999998 573.982 235.36399999999998 Z M 460.34399999999994 236.69499999999996 C 444.69499999999994 236.69499999999996 433.46099999999996 229.42199999999997 429.62999999999994 216.88999999999996 L 502.25999999999993 216.88999999999996 C 502.9749999999999 213.05899999999997 503.46199999999993 208.51299999999995 503.46199999999993 205.46099999999996 C 503.46199999999993 172.44099999999995 484.9869999999999 152.63599999999997 453.9479999999999 152.63599999999997 C 422.6169999999999 152.63599999999997 400.92799999999994 174.64899999999997 400.92799999999994 206.56499999999997 C 400.92799999999994 238.90299999999996 423.65599999999995 260.49399999999997 457.38999999999993 260.49399999999997 C 474.8569999999999 260.49399999999997 491.8379999999999 254.64999999999998 502.4549999999999 244.94199999999998 L 491.8379999999999 226.24099999999999 C 481.54599999999994 233.351 471.4479999999999 236.695 460.34399999999994 236.695 Z M 453.75299999999993 175.55799999999996 C 467.38999999999993 175.55799999999996 476.09099999999995 183.83699999999996 476.09099999999995 196.66199999999998 L 476.09099999999995 196.76 L 429.0129999999999 196.76 C 431.8379999999999 183.156 440.6359999999999 175.558 453.75299999999993 175.558 Z M 354.7589999999999 260.52599999999995 C 370.0189999999999 260.52599999999995 384.9539999999999 254.68199999999996 395.4729999999999 244.55199999999996 L 383.9469999999999 225.16899999999995 C 375.7649999999999 231.53299999999996 366.4799999999999 234.97399999999996 357.68099999999987 234.97399999999996 C 341.3169999999999 234.97399999999996 330.40799999999984 223.54499999999996 330.40799999999984 206.59699999999995 C 330.40799999999984 189.64899999999994 341.31699999999984 178.21999999999994 357.68099999999987 178.21999999999994 C 365.7649999999999 178.21999999999994 374.56399999999985 181.14199999999994 381.7069999999999 186.30499999999995 L 393.4279999999999 166.49899999999994 C 383.9469999999999 157.92799999999994 369.2719999999999 152.66799999999995 354.7259999999999 152.66799999999995 C 322.7129999999999 152.66799999999995 300.08299999999986 175.00599999999994 300.08299999999986 206.59699999999995 C 300.11499999999984 238.09099999999995 322.74499999999983 260.52599999999995 354.75899999999984 260.52599999999995 Z M 261.0239999999999 155.26499999999996 L 260.5049999999999 171.23999999999995 C 253.5239999999999 159.32399999999996 241.0239999999999 152.66799999999995 225.6669999999999 152.66799999999995 C 197.58199999999988 152.66799999999995 177.1919999999999 175.39599999999996 177.1919999999999 206.59699999999995 C 177.1919999999999 237.79899999999995 197.7119999999999 260.52599999999995 225.6669999999999 260.52599999999995 C 241.0239999999999 260.52599999999995 253.5559999999999 253.86999999999995 260.5049999999999 242.05199999999996 L 261.0239999999999 257.89599999999996 L 287.19299999999987 257.89599999999996 L 287.19299999999987 155.265 L 261.0239999999999 155.265 Z M 232.64699999999988 235.36399999999998 C 217.48499999999987 235.36399999999998 207.09499999999989 223.64299999999997 207.09499999999989 206.56499999999997 C 207.09499999999989 189.48699999999997 217.4849999999999 177.76599999999996 232.64699999999988 177.76599999999996 C 247.8099999999999 177.76599999999996 258.1989999999999 189.48699999999997 258.1989999999999 206.56499999999997 C 258.1989999999999 223.64299999999997 247.7769999999999 235.36399999999998 232.6469999999999 235.36399999999998 Z M 174.98399999999987 155.45799999999997 L 148.45799999999986 155.45799999999997 L 148.45799999999986 146.69099999999997 C 148.45799999999986 133.57399999999998 153.58799999999985 128.54199999999997 166.89999999999986 128.54199999999997 C 171.02299999999985 128.54199999999997 174.36699999999988 128.63899999999998 176.28299999999987 128.83399999999997 L 176.28299999999987 106.33399999999997 C 172.64599999999987 105.32699999999997 163.78299999999987 104.32099999999997 158.65299999999988 104.32099999999997 C 131.5419999999999 104.32099999999997 119.04199999999989 117.11299999999997 119.04199999999989 144.74299999999997 L 119.04199999999989 155.42499999999995 L 102.28899999999989 155.42499999999995 L 102.28899999999989 180.23099999999997 L 119.04199999999989 180.23099999999997 L 119.04199999999989 257.86199999999997 L 148.4899999999999 257.86199999999997 L 148.4899999999999 180.26299999999998 L 170.4389999999999 180.26299999999998 L 174.9839999999999 155.45799999999997 Z" stroke-linecap="round" />
</g>
<g transform="matrix(1 0 0 1 343.38 571.97)" style="" id="e739b73c-684a-4191-a4c0-ed47b6f89dd8"  >
		<text xml:space="preserve" font-family="Raleway" font-size="105" font-style="normal" font-weight="900" style="stroke: none; stroke-width: 1; stroke-dasharray: none; stroke-linecap: butt; stroke-dashoffset: 0; stroke-linejoin: miter; stroke-miterlimit: 4; fill: rgb(0,0,0); fill-rule: nonzero; opacity: 1; white-space: pre;" ><tspan x="-36.23" y="32.98" >K</tspan></text>
</g>
</svg>